<svg width="433" height="95" viewBox="0 0 433 95" fill="none" xmlns="http://www.w3.org/2000/svg">
<mask id="path-1-outside-1_10_4" maskUnits="userSpaceOnUse" x="0.352051" y="0.120117" width="432" height="95" fill="black">
<rect fill="white" x="0.352051" y="0.120117" width="432" height="95"/>
<path d="M22.0881 93.2801C15.3467 93.2801 10.1841 91.3601 6.60005 87.5201C3.10138 83.6801 1.35205 78.2615 1.35205 71.2641V23.1361C1.35205 16.1388 3.10138 10.7201 6.60005 6.88012C10.1841 3.04012 15.3467 1.12012 22.0881 1.12012C28.8294 1.12012 33.9494 3.04012 37.4481 6.88012C41.0321 10.7201 42.8241 16.1388 42.8241 23.1361V32.6081H29.5121V22.2401C29.5121 16.6935 27.1654 13.9201 22.4721 13.9201C17.7787 13.9201 15.4321 16.6935 15.4321 22.2401V72.2881C15.4321 77.7495 17.7787 80.4801 22.4721 80.4801C27.1654 80.4801 29.5121 77.7495 29.5121 72.2881V58.5921H42.8241V71.2641C42.8241 78.2615 41.0321 83.6801 37.4481 87.5201C33.9494 91.3601 28.8294 93.2801 22.0881 93.2801Z"/>
<path d="M51.2481 2.40012H72.1121C79.3654 2.40012 84.6561 4.10678 87.9841 7.52012C91.3121 10.8481 92.9761 16.0108 92.9761 23.0081V28.5121C92.9761 37.8135 89.9041 43.7015 83.7601 46.1761V46.4321C87.1734 47.4561 89.5627 49.5468 90.9281 52.7041C92.3787 55.8615 93.1041 60.0855 93.1041 65.3761V81.1201C93.1041 83.6801 93.1894 85.7708 93.3601 87.3921C93.5307 88.9281 93.9574 90.4641 94.6401 92.0001H80.3041C79.7921 90.5495 79.4507 89.1841 79.2801 87.9041C79.1094 86.6241 79.0241 84.3201 79.0241 80.9921V64.6081C79.0241 60.5121 78.3414 57.6535 76.9761 56.0321C75.6961 54.4108 73.4347 53.6001 70.1921 53.6001H65.3281V92.0001H51.2481V2.40012ZM70.4481 40.8001C73.2641 40.8001 75.3547 40.0748 76.7201 38.6241C78.1707 37.1735 78.896 34.7415 78.896 31.3281V24.4161C78.896 21.1735 78.2987 18.8268 77.104 17.3761C75.9947 15.9255 74.2027 15.2001 71.7281 15.2001H65.3281V40.8001H70.4481Z"/>
<path d="M102.873 2.40012H141.273V15.2001H116.953V38.8801H136.281V51.6801H116.953V79.2001H141.273V92.0001H102.873V2.40012Z"/>
<path d="M160.253 2.40012H179.325L193.917 92.0001H179.837L177.277 74.2081V74.4641H161.277L158.717 92.0001H145.661L160.253 2.40012ZM175.613 62.3041L169.341 18.0161H169.085L162.941 62.3041H175.613Z"/>
<path d="M205.881 15.2001H191.161V2.40012H234.681V15.2001H219.961V92.0001H205.881V15.2001Z"/>
<path d="M241.498 2.40012H255.578V92.0001H241.498V2.40012Z"/>
<path d="M262.411 2.40012H276.619L285.835 71.9041H286.091L295.307 2.40012H308.235L294.667 92.0001H275.979L262.411 2.40012Z"/>
<path d="M314.998 2.40012H329.078V92.0001H314.998V2.40012Z"/>
<path d="M350.631 15.2001H335.911V2.40012H379.431V15.2001H364.711V92.0001H350.631V15.2001Z"/>
<path d="M399.676 53.8561L382.652 2.40012H397.628L407.228 35.2961H407.484L417.084 2.40012H430.78L413.756 53.8561V92.0001H399.676V53.8561Z"/>
</mask>
<path d="M22.0881 93.2801C15.3467 93.2801 10.1841 91.3601 6.60005 87.5201C3.10138 83.6801 1.35205 78.2615 1.35205 71.2641V23.1361C1.35205 16.1388 3.10138 10.7201 6.60005 6.88012C10.1841 3.04012 15.3467 1.12012 22.0881 1.12012C28.8294 1.12012 33.9494 3.04012 37.4481 6.88012C41.0321 10.7201 42.8241 16.1388 42.8241 23.1361V32.6081H29.5121V22.2401C29.5121 16.6935 27.1654 13.9201 22.4721 13.9201C17.7787 13.9201 15.4321 16.6935 15.4321 22.2401V72.2881C15.4321 77.7495 17.7787 80.4801 22.4721 80.4801C27.1654 80.4801 29.5121 77.7495 29.5121 72.2881V58.5921H42.8241V71.2641C42.8241 78.2615 41.0321 83.6801 37.4481 87.5201C33.9494 91.3601 28.8294 93.2801 22.0881 93.2801Z" stroke="#FFAD08" stroke-width="2" mask="url(#path-1-outside-1_10_4)"/>
<path d="M51.2481 2.40012H72.1121C79.3654 2.40012 84.6561 4.10678 87.9841 7.52012C91.3121 10.8481 92.9761 16.0108 92.9761 23.0081V28.5121C92.9761 37.8135 89.9041 43.7015 83.7601 46.1761V46.4321C87.1734 47.4561 89.5627 49.5468 90.9281 52.7041C92.3787 55.8615 93.1041 60.0855 93.1041 65.3761V81.1201C93.1041 83.6801 93.1894 85.7708 93.3601 87.3921C93.5307 88.9281 93.9574 90.4641 94.6401 92.0001H80.3041C79.7921 90.5495 79.4507 89.1841 79.2801 87.9041C79.1094 86.6241 79.0241 84.3201 79.0241 80.9921V64.6081C79.0241 60.5121 78.3414 57.6535 76.9761 56.0321C75.6961 54.4108 73.4347 53.6001 70.1921 53.6001H65.3281V92.0001H51.2481V2.40012ZM70.4481 40.8001C73.2641 40.8001 75.3547 40.0748 76.7201 38.6241C78.1707 37.1735 78.896 34.7415 78.896 31.3281V24.4161C78.896 21.1735 78.2987 18.8268 77.104 17.3761C75.9947 15.9255 74.2027 15.2001 71.7281 15.2001H65.3281V40.8001H70.4481Z" stroke="#FFAD08" stroke-width="2" mask="url(#path-1-outside-1_10_4)"/>
<path d="M102.873 2.40012H141.273V15.2001H116.953V38.8801H136.281V51.6801H116.953V79.2001H141.273V92.0001H102.873V2.40012Z" stroke="#FFAD08" stroke-width="2" mask="url(#path-1-outside-1_10_4)"/>
<path d="M160.253 2.40012H179.325L193.917 92.0001H179.837L177.277 74.2081V74.4641H161.277L158.717 92.0001H145.661L160.253 2.40012ZM175.613 62.3041L169.341 18.0161H169.085L162.941 62.3041H175.613Z" stroke="#FFAD08" stroke-width="2" mask="url(#path-1-outside-1_10_4)"/>
<path d="M205.881 15.2001H191.161V2.40012H234.681V15.2001H219.961V92.0001H205.881V15.2001Z" stroke="#FFAD08" stroke-width="2" mask="url(#path-1-outside-1_10_4)"/>
<path d="M241.498 2.40012H255.578V92.0001H241.498V2.40012Z" stroke="#FFAD08" stroke-width="2" mask="url(#path-1-outside-1_10_4)"/>
<path d="M262.411 2.40012H276.619L285.835 71.9041H286.091L295.307 2.40012H308.235L294.667 92.0001H275.979L262.411 2.40012Z" stroke="#FFAD08" stroke-width="2" mask="url(#path-1-outside-1_10_4)"/>
<path d="M314.998 2.40012H329.078V92.0001H314.998V2.40012Z" stroke="#FFAD08" stroke-width="2" mask="url(#path-1-outside-1_10_4)"/>
<path d="M350.631 15.2001H335.911V2.40012H379.431V15.2001H364.711V92.0001H350.631V15.2001Z" stroke="#FFAD08" stroke-width="2" mask="url(#path-1-outside-1_10_4)"/>
<path d="M399.676 53.8561L382.652 2.40012H397.628L407.228 35.2961H407.484L417.084 2.40012H430.78L413.756 53.8561V92.0001H399.676V53.8561Z" stroke="#FFAD08" stroke-width="2" mask="url(#path-1-outside-1_10_4)"/>
</svg>
