<svg width="430" height="93" viewBox="0 0 430 93" fill="none" xmlns="http://www.w3.org/2000/svg">
<path d="M21.0881 92.2801C14.3467 92.2801 9.18405 90.3601 5.60005 86.5201C2.10138 82.6801 0.352051 77.2615 0.352051 70.2641V22.1361C0.352051 15.1388 2.10138 9.72012 5.60005 5.88012C9.18405 2.04012 14.3467 0.120117 21.0881 0.120117C27.8294 0.120117 32.9494 2.04012 36.4481 5.88012C40.0321 9.72012 41.8241 15.1388 41.8241 22.1361V31.6081H28.5121V21.2401C28.5121 15.6935 26.1654 12.9201 21.4721 12.9201C16.7787 12.9201 14.4321 15.6935 14.4321 21.2401V71.2881C14.4321 76.7495 16.7787 79.4801 21.4721 79.4801C26.1654 79.4801 28.5121 76.7495 28.5121 71.2881V57.5921H41.8241V70.2641C41.8241 77.2615 40.0321 82.6801 36.4481 86.5201C32.9494 90.3601 27.8294 92.2801 21.0881 92.2801Z" fill="#FFA12D" fill-opacity="0.7"/>
<path d="M50.2481 1.40012H71.1121C78.3654 1.40012 83.6561 3.10678 86.9841 6.52012C90.3121 9.84812 91.9761 15.0108 91.9761 22.0081V27.5121C91.9761 36.8135 88.9041 42.7015 82.7601 45.1761V45.4321C86.1734 46.4561 88.5627 48.5468 89.9281 51.7041C91.3787 54.8615 92.1041 59.0855 92.1041 64.3761V80.1201C92.1041 82.6801 92.1894 84.7708 92.3601 86.3921C92.5307 87.9281 92.9574 89.4641 93.6401 91.0001H79.3041C78.7921 89.5495 78.4507 88.1841 78.2801 86.9041C78.1094 85.6241 78.0241 83.3201 78.0241 79.9921V63.6081C78.0241 59.5121 77.3414 56.6535 75.9761 55.0321C74.6961 53.4108 72.4347 52.6001 69.1921 52.6001H64.3281V91.0001H50.2481V1.40012ZM69.4481 39.8001C72.2641 39.8001 74.3547 39.0748 75.7201 37.6241C77.1707 36.1735 77.896 33.7415 77.896 30.3281V23.4161C77.896 20.1735 77.2987 17.8268 76.104 16.3761C74.9947 14.9255 73.2027 14.2001 70.7281 14.2001H64.3281V39.8001H69.4481Z" fill="#FFA12D" fill-opacity="0.7"/>
<path d="M101.873 1.40012H140.273V14.2001H115.953V37.8801H135.281V50.6801H115.953V78.2001H140.273V91.0001H101.873V1.40012Z" fill="#FFA12D" fill-opacity="0.7"/>
<path d="M159.253 1.40012H178.325L192.917 91.0001H178.837L176.277 73.2081V73.4641H160.277L157.717 91.0001H144.661L159.253 1.40012ZM174.613 61.3041L168.341 17.0161H168.085L161.941 61.3041H174.613Z" fill="#FFA12D" fill-opacity="0.7"/>
<path d="M204.881 14.2001H190.161V1.40012H233.681V14.2001H218.961V91.0001H204.881V14.2001Z" fill="#FFA12D" fill-opacity="0.7"/>
<path d="M240.498 1.40012H254.578V91.0001H240.498V1.40012Z" fill="#FFA12D" fill-opacity="0.7"/>
<path d="M261.411 1.40012H275.619L284.835 70.9041H285.091L294.307 1.40012H307.235L293.667 91.0001H274.979L261.411 1.40012Z" fill="#FFA12D" fill-opacity="0.7"/>
<path d="M313.998 1.40012H328.078V91.0001H313.998V1.40012Z" fill="#FFA12D" fill-opacity="0.7"/>
<path d="M349.631 14.2001H334.911V1.40012H378.431V14.2001H363.711V91.0001H349.631V14.2001Z" fill="#FFA12D" fill-opacity="0.7"/>
<path d="M398.676 52.8561L381.652 1.40012H396.628L406.228 34.2961H406.484L416.084 1.40012H429.78L412.756 52.8561V91.0001H398.676V52.8561Z" fill="#FFA12D" fill-opacity="0.7"/>
</svg>
